<svg xmlns="http://www.w3.org/2000/svg" viewBox="0 18.149999618530273 246.60000610351562 47.25" data-asc="1.303" width="246.60000610351562" height="47.25"><defs/><g fill="#ffffff"><g transform="translate(0, 0)"><path d="M40.30 23.65Q41.85 23.95 42.63 24.70Q43.40 25.45 43.40 26.45Q43.40 28.10 42.48 28.85Q41.55 29.60 39.55 29.45Q35.05 29.10 32.52 28.97Q30 28.85 25.90 28.80Q24.05 38.00 22.50 47.30Q21.95 50.70 21.35 55.17Q20.75 59.65 20.55 62.40Q20.45 63.85 19.35 64.62Q18.25 65.40 16.70 65.40Q15.05 65.40 14.15 64.60Q13.25 63.80 13.25 62.50Q13.25 61.30 13.63 58.52Q14 55.75 14.50 52.70Q15.05 49.65 15.35 47.40Q15.90 43.60 16.60 39.85Q17.30 36.10 18 32.75Q18.15 32.00 18.35 31.02Q18.55 30.05 18.80 28.85Q13.90 29.00 11.10 29.65Q8.30 30.30 7.13 31.47Q5.95 32.65 5.95 34.50Q5.95 36.20 6.95 37.75Q7.15 38.10 7.15 38.50Q7.15 39.45 6.03 40.27Q4.90 41.10 3.70 41.10Q2.85 41.10 2.30 40.60Q1.30 39.75 0.65 38.17Q0 36.60 0 34.60Q0 30.35 2.78 27.77Q5.55 25.20 11.23 24.00Q16.90 22.80 25.80 22.80Q31.30 22.80 34.58 23.00Q37.85 23.20 40.30 23.65ZM39.05 65.40Q37.15 65.40 36.38 63.40Q35.60 61.40 35.60 57.00Q35.60 50.50 37.45 44.65Q37.90 43.20 38.93 42.52Q39.95 41.85 41.80 41.85Q42.80 41.85 43.20 42.10Q43.60 42.35 43.60 43.05Q43.60 43.85 42.85 46.65Q42.35 48.65 42.05 50.15Q41.75 51.65 41.55 53.85Q43.20 49.55 45.25 46.85Q47.30 44.15 49.28 43.00Q51.25 41.85 52.90 41.85Q56.15 41.85 56.15 45.10Q56.15 45.75 55.70 48.25Q55.30 50.25 55.30 50.75Q55.30 52.50 56.55 52.50Q57.95 52.50 60.15 50.30Q60.80 49.65 61.50 49.65Q62.15 49.65 62.53 50.22Q62.90 50.80 62.90 51.75Q62.90 53.60 61.90 54.65Q60.50 56.10 58.63 57.12Q56.75 58.15 54.65 58.15Q52 58.15 50.63 56.80Q49.25 55.45 49.25 53.15Q49.25 52.40 49.40 51.65Q49.50 50.65 49.50 50.30Q49.50 49.50 48.95 49.50Q48.20 49.50 46.98 51.17Q45.75 52.85 44.55 55.60Q43.35 58.35 42.60 61.40Q42.05 63.75 41.33 64.57Q40.60 65.40 39.05 65.40ZM64.40 65.40Q61.30 65.40 59.45 63.15Q57.60 60.90 57.60 57.25Q57.60 53.25 59.45 49.67Q61.30 46.10 64.38 43.92Q67.45 41.75 70.90 41.75Q72 41.75 72.38 42.17Q72.75 42.60 73 43.70Q74.05 43.50 75.20 43.50Q77.65 43.50 77.65 45.25Q77.65 46.30 76.90 50.25Q75.75 56.00 75.75 58.25Q75.75 59.00 76.13 59.45Q76.50 59.90 77.10 59.90Q78.05 59.90 79.40 58.67Q80.75 57.45 83.05 54.70Q83.65 54.00 84.40 54.00Q85.05 54.00 85.43 54.60Q85.80 55.20 85.80 56.25Q85.80 58.25 84.85 59.35Q82.80 61.90 80.50 63.65Q78.20 65.40 76.05 65.40Q74.40 65.40 73.03 64.27Q71.65 63.15 70.95 61.20Q68.35 65.40 64.40 65.40M66.20 60.35Q67.30 60.35 68.30 59.05Q69.30 57.75 69.75 55.60L71.60 46.40Q69.50 46.45 67.72 47.97Q65.95 49.50 64.90 52.00Q63.85 54.50 63.85 57.30Q63.85 58.85 64.47 59.60Q65.10 60.35 66.20 60.35ZM106.50 49.95Q106.65 49.90 107 49.90Q107.75 49.90 108.15 50.40Q108.55 50.90 108.55 51.75Q108.55 53.30 107.95 54.17Q107.35 55.05 106.15 55.45Q103.85 56.20 101.25 56.20Q99.05 56.20 97.10 55.60Q95.65 57.95 93.90 60.45Q91.90 63.30 90.45 64.35Q89 65.40 87.15 65.40Q85.10 65.40 83.92 63.80Q82.75 62.20 82.45 58.75Q81.85 51.75 81.85 46.50L81.85 44.75Q81.90 43.10 82.75 42.45Q83.60 41.80 85.30 41.80Q86.60 41.80 87.22 42.37Q87.85 42.95 87.85 44.30Q87.85 50.05 88.55 59.25Q91.55 54.80 93.05 52.15Q92.30 50.70 92.30 48.70Q92.30 47.00 93.05 45.40Q93.80 43.80 95.10 42.80Q96.40 41.80 98.05 41.80Q99.50 41.80 100.40 42.82Q101.30 43.85 101.30 45.80Q101.30 48.05 100.10 50.95Q102 50.85 105.15 50.20L106.50 49.95ZM126.50 54.00Q127.15 54.00 127.53 54.60Q127.90 55.20 127.90 56.25Q127.90 58.25 126.95 59.35Q125.10 61.60 121.72 63.50Q118.35 65.40 114.50 65.40Q109.25 65.40 106.35 62.55Q103.45 59.70 103.45 54.75Q103.45 51.30 104.90 48.32Q106.35 45.35 108.92 43.60Q111.50 41.85 114.75 41.85Q117.65 41.85 119.40 43.57Q121.15 45.30 121.15 48.25Q121.15 51.70 118.67 54.17Q116.20 56.65 110.30 58.10Q111.55 60.40 115.05 60.40Q117.30 60.40 120.17 58.82Q123.05 57.25 125.15 54.70Q125.75 54.00 126.50 54.00M113.90 46.75Q112.05 46.75 110.77 48.90Q109.50 51.05 109.50 54.10L109.50 54.20Q112.45 53.50 114.15 52.10Q115.85 50.70 115.85 48.85Q115.85 47.90 115.33 47.32Q114.80 46.75 113.90 46.75ZM142.80 54.00Q143.45 54.00 143.82 54.60Q144.20 55.20 144.20 56.25Q144.20 58.25 143.25 59.35Q141.10 62.00 138.57 63.70Q136.05 65.40 132.85 65.40Q128.45 65.40 126.33 61.40Q124.20 57.40 124.20 51.05Q124.20 44.95 125.78 37.15Q127.35 29.35 130.43 23.75Q133.50 18.15 137.75 18.15Q140.15 18.15 141.53 20.37Q142.90 22.60 142.90 26.75Q142.90 32.70 139.60 40.55Q136.30 48.40 130.65 56.10Q131 58.15 131.80 59.02Q132.60 59.90 133.90 59.90Q135.95 59.90 137.50 58.72Q139.05 57.55 141.45 54.70Q142.05 54.00 142.80 54.00M136.65 23.10Q135.50 23.10 134.05 27.25Q132.60 31.40 131.50 37.55Q130.40 43.70 130.30 49.35Q133.85 43.50 135.95 37.62Q138.05 31.75 138.05 26.90Q138.05 23.10 136.65 23.10ZM179.80 23.65Q181.35 23.95 182.13 24.70Q182.90 25.45 182.90 26.45Q182.90 28.10 181.97 28.85Q181.05 29.60 179.05 29.45Q174.55 29.10 172.03 28.97Q169.50 28.85 165.40 28.80Q163.55 38.00 162 47.30Q161.45 50.70 160.85 55.17Q160.25 59.65 160.05 62.40Q159.95 63.85 158.85 64.62Q157.75 65.40 156.20 65.40Q154.55 65.40 153.65 64.60Q152.75 63.80 152.75 62.50Q152.75 61.30 153.13 58.52Q153.50 55.75 154 52.70Q154.55 49.65 154.85 47.40Q155.40 43.60 156.10 39.85Q156.80 36.10 157.50 32.75Q157.65 32.00 157.85 31.02Q158.05 30.05 158.30 28.85Q153.40 29.00 150.60 29.65Q147.80 30.30 146.63 31.47Q145.45 32.65 145.45 34.50Q145.45 36.20 146.45 37.75Q146.65 38.10 146.65 38.50Q146.65 39.45 145.53 40.27Q144.40 41.10 143.20 41.10Q142.35 41.10 141.80 40.60Q140.80 39.75 140.15 38.17Q139.50 36.60 139.50 34.60Q139.50 30.35 142.28 27.77Q145.05 25.20 150.72 24.00Q156.40 22.80 165.30 22.80Q170.80 22.80 174.07 23.00Q177.35 23.20 179.80 23.65ZM180.10 65.40Q177.85 65.40 176.42 63.32Q175 61.25 175 58.15Q175 54.40 175.50 51.27Q176 48.15 177.15 44.65Q177.65 43.15 178.55 42.50Q179.45 41.85 181.40 41.85Q182.50 41.85 182.92 42.20Q183.35 42.55 183.35 43.25Q183.35 43.65 182.80 45.95Q182.30 47.80 182 49.30Q181 54.55 181 56.30Q181 57.35 181.25 57.77Q181.50 58.20 182.05 58.20Q182.80 58.20 183.92 56.70Q185.05 55.20 186.32 52.15Q187.60 49.10 188.80 44.65Q189.20 43.15 190.03 42.50Q190.85 41.85 192.50 41.85Q193.65 41.85 194.10 42.12Q194.55 42.40 194.55 43.15Q194.55 44.40 193.30 50.00Q191.90 56.40 191.90 57.90Q191.90 58.85 192.30 59.37Q192.70 59.90 193.35 59.90Q194.35 59.90 195.72 58.67Q197.10 57.45 199.40 54.70Q200 54.00 200.75 54.00Q201.40 54.00 201.78 54.60Q202.15 55.20 202.15 56.25Q202.15 58.25 201.20 59.35Q199.05 62.00 196.57 63.70Q194.10 65.40 190.95 65.40Q188.55 65.40 187.42 63.55Q186.30 61.70 186.30 58.35Q185.45 61.75 183.75 63.57Q182.05 65.40 180.10 65.40ZM201.65 65.40Q199.75 65.40 198.97 63.40Q198.20 61.40 198.20 57.00Q198.20 50.50 200.05 44.65Q200.50 43.20 201.52 42.52Q202.55 41.85 204.40 41.85Q205.40 41.85 205.80 42.10Q206.20 42.35 206.20 43.05Q206.20 43.85 205.45 46.65Q204.95 48.65 204.65 50.15Q204.35 51.65 204.15 53.85Q205.80 49.55 207.85 46.85Q209.90 44.15 211.88 43.00Q213.85 41.85 215.50 41.85Q218.75 41.85 218.75 45.10Q218.75 47.05 217.65 52.15Q216.70 56.50 216.70 57.90Q216.70 59.90 218.15 59.90Q219.15 59.90 220.52 58.67Q221.90 57.45 224.20 54.70Q224.80 54.00 225.55 54.00Q226.20 54.00 226.57 54.60Q226.95 55.20 226.95 56.25Q226.95 58.25 226 59.35Q223.85 62.00 221.38 63.70Q218.90 65.40 215.75 65.40Q213.20 65.40 211.90 63.92Q210.60 62.45 210.60 59.65Q210.60 58.25 211.30 54.65Q211.95 51.50 211.95 50.30Q211.95 49.50 211.40 49.50Q210.75 49.50 209.57 51.17Q208.40 52.85 207.17 55.60Q205.95 58.35 205.20 61.40Q204.65 63.75 203.92 64.57Q203.20 65.40 201.65 65.40ZM245.20 54.00Q245.85 54.00 246.22 54.60Q246.60 55.20 246.60 56.25Q246.60 58.25 245.65 59.35Q243.80 61.60 240.43 63.50Q237.05 65.40 233.20 65.40Q227.95 65.40 225.05 62.55Q222.15 59.70 222.15 54.75Q222.15 51.30 223.60 48.32Q225.05 45.35 227.63 43.60Q230.20 41.85 233.45 41.85Q236.35 41.85 238.10 43.57Q239.85 45.30 239.85 48.25Q239.85 51.70 237.38 54.17Q234.90 56.65 229 58.10Q230.25 60.40 233.75 60.40Q236 60.40 238.88 58.82Q241.75 57.25 243.85 54.70Q244.45 54.00 245.20 54.00M232.60 46.75Q230.75 46.75 229.47 48.90Q228.20 51.05 228.20 54.10L228.20 54.20Q231.15 53.50 232.85 52.10Q234.55 50.70 234.55 48.85Q234.55 47.90 234.03 47.32Q233.50 46.75 232.60 46.75Z"/></g></g></svg>