<svg width="614" height="121" viewBox="0 0 614 121" fill="none" xmlns="http://www.w3.org/2000/svg">
<path d="M103.168 14.0803C105.813 14.5923 107.776 15.4883 109.056 16.7683C110.421 18.0483 111.104 19.5416 111.104 21.2483C111.104 24.0643 110.293 26.1123 108.672 27.3923C107.136 28.6723 104.661 29.1843 101.248 28.9283C93.5675 28.331 87.5515 27.947 83.1995 27.7763C78.9329 27.5203 73.3009 27.3496 66.3035 27.2643C63.1462 42.9656 60.2449 58.7523 57.5995 74.6243C56.6609 80.427 55.6795 87.1683 54.6555 94.8483C53.6315 102.443 52.9489 108.587 52.6075 113.28C52.4369 115.755 51.4129 117.675 49.5355 119.04C47.6582 120.32 45.3969 120.96 42.7515 120.96C39.9355 120.96 37.7595 120.278 36.2235 118.912C34.6875 117.547 33.9195 115.755 33.9195 113.536C33.9195 111.488 34.2182 108.118 34.8155 103.424C35.4982 98.6456 36.2662 93.6536 37.1195 88.4483C38.0582 83.243 38.7835 78.7203 39.2955 74.8803C40.2342 68.395 41.3009 61.9523 42.4955 55.5523C43.6902 49.1523 44.8849 43.0936 46.0795 37.3763C46.3355 36.0963 46.6342 34.6456 46.9755 33.0243C47.3169 31.3176 47.7009 29.4403 48.1275 27.3923C39.7649 27.6483 33.1942 28.331 28.4155 29.4403C23.6369 30.5496 20.2235 32.1283 18.1755 34.1763C16.2129 36.139 15.2315 38.699 15.2315 41.8563C15.2315 44.7576 16.0849 47.531 17.7915 50.1763C18.1329 50.7736 18.3035 51.4136 18.3035 52.0963C18.3035 53.7176 17.3222 55.2536 15.3595 56.7043C13.4822 58.0696 11.5195 58.7523 9.47153 58.7523C8.02087 58.7523 6.8262 58.3256 5.88753 57.4723C4.18086 56.0216 2.77286 53.9736 1.66353 51.3283C0.554198 48.5976 -0.000468731 45.5256 -0.000468731 42.1123C-0.000468731 34.859 2.3462 29.0563 7.03953 24.7043C11.8182 20.267 19.0289 17.0243 28.6715 14.9763C38.3995 12.9283 50.8582 11.9043 66.0475 11.9043C75.4342 11.9043 82.9009 12.075 88.4475 12.4163C94.0795 12.7576 98.9862 13.3123 103.168 14.0803ZM96.1265 120.96C92.8839 120.96 90.5799 119.254 89.2145 115.84C87.9345 112.427 87.2945 106.966 87.2945 99.4563C87.2945 88.363 88.8732 77.8243 92.0305 67.8403C92.7985 65.3656 94.0359 63.5736 95.7425 62.4643C97.5345 61.2696 100.009 60.6723 103.167 60.6723C104.873 60.6723 106.068 60.8856 106.751 61.3123C107.433 61.739 107.775 62.5496 107.775 63.7443C107.775 65.1096 107.135 68.1816 105.855 72.9603C105.001 76.3736 104.319 79.3603 103.807 81.9203C103.295 84.4803 102.868 87.6376 102.527 91.3923C105.343 84.0536 108.5 78.0803 111.999 73.4723C115.497 68.8643 118.911 65.579 122.239 63.6163C125.652 61.6536 128.767 60.6723 131.583 60.6723C137.129 60.6723 139.903 63.4456 139.903 68.9923C139.903 70.1016 139.519 72.7896 138.751 77.0563C138.068 80.4696 137.727 82.603 137.727 83.4563C137.727 86.443 138.793 87.9363 140.927 87.9363C143.316 87.9363 146.388 86.059 150.143 82.3043C151.252 81.195 152.404 80.6403 153.599 80.6403C154.708 80.6403 155.561 81.1523 156.159 82.1763C156.841 83.115 157.183 84.395 157.183 86.0163C157.183 89.1736 156.329 91.6483 154.623 93.4403C152.233 95.915 149.417 98.0483 146.175 99.8403C143.017 101.547 139.647 102.4 136.063 102.4C131.54 102.4 128.084 101.248 125.695 98.9443C123.391 96.6403 122.239 93.5256 122.239 89.6003C122.239 88.3203 122.367 87.0403 122.623 85.7603C122.793 84.0536 122.879 82.9016 122.879 82.3043C122.879 80.939 122.409 80.2563 121.471 80.2563C120.191 80.2563 118.484 81.707 116.351 84.6083C114.303 87.4243 112.255 91.179 110.207 95.8723C108.159 100.566 106.495 105.515 105.215 110.72C104.276 114.731 103.167 117.462 101.887 118.912C100.692 120.278 98.7719 120.96 96.1265 120.96ZM161.033 120.96C155.742 120.96 151.518 119.04 148.361 115.2C145.203 111.36 143.625 106.326 143.625 100.096C143.625 93.2696 145.203 86.827 148.361 80.7683C151.518 74.6243 155.699 69.7176 160.905 66.0483C166.195 62.2936 171.785 60.4163 177.673 60.4163C179.55 60.4163 180.787 60.8003 181.385 61.5683C182.067 62.251 182.622 63.531 183.049 65.4083C184.841 65.067 186.718 64.8963 188.681 64.8963C192.862 64.8963 194.953 66.3896 194.953 69.3763C194.953 71.1683 194.313 75.435 193.033 82.1763C191.07 91.9896 190.089 98.8163 190.089 102.656C190.089 103.936 190.387 104.96 190.985 105.728C191.667 106.496 192.521 106.88 193.545 106.88C195.166 106.88 197.129 105.856 199.433 103.808C201.737 101.675 204.851 98.2616 208.777 93.5683C209.801 92.3736 210.953 91.7763 212.233 91.7763C213.342 91.7763 214.195 92.2883 214.793 93.3123C215.475 94.3363 215.817 95.7443 215.817 97.5363C215.817 100.95 215.006 103.595 213.385 105.472C209.886 109.824 206.174 113.494 202.249 116.48C198.323 119.467 194.526 120.96 190.857 120.96C188.041 120.96 185.438 120.022 183.049 118.144C180.745 116.182 178.995 113.536 177.801 110.208C173.363 117.376 167.774 120.96 161.033 120.96ZM165.641 108.032C167.518 108.032 169.31 106.923 171.017 104.704C172.723 102.486 173.961 99.5416 174.729 95.8723L179.465 72.3203C175.881 72.4056 172.553 73.771 169.481 76.4163C166.494 78.9763 164.105 82.3896 162.313 86.6563C160.521 90.923 159.625 95.4456 159.625 100.224C159.625 102.87 160.137 104.832 161.161 106.112C162.27 107.392 163.763 108.032 165.641 108.032ZM270.024 81.4083C270.28 81.323 270.706 81.2803 271.304 81.2803C272.584 81.2803 273.565 81.707 274.248 82.5603C274.93 83.4136 275.272 84.5656 275.272 86.0163C275.272 88.6616 274.76 90.7523 273.736 92.2883C272.712 93.739 271.176 94.8056 269.128 95.4883C265.202 96.7683 261.021 97.4083 256.584 97.4083C252.829 97.4083 249.288 96.8963 245.96 95.8723C243.485 99.883 240.754 104.022 237.768 108.288C234.354 113.152 231.41 116.48 228.936 118.272C226.461 120.064 223.645 120.96 220.488 120.96C216.989 120.96 214.216 119.595 212.168 116.864C210.205 114.134 208.968 109.824 208.456 103.936C207.432 91.9896 206.92 81.5363 206.92 72.5763V68.0963C207.005 65.2803 207.773 63.3176 209.224 62.2083C210.674 61.099 212.85 60.5443 215.752 60.5443C217.97 60.5443 219.592 61.0563 220.616 62.0803C221.725 63.019 222.28 64.6403 222.28 66.9443C222.28 76.7576 222.877 89.515 224.072 105.216C229.192 97.6216 233.032 91.563 235.592 87.0403C234.312 84.5656 233.672 81.6216 233.672 78.2083C233.672 75.307 234.312 72.491 235.592 69.7603C236.872 67.0296 238.621 64.811 240.84 63.1043C243.058 61.3976 245.576 60.5443 248.392 60.5443C250.866 60.5443 252.872 61.4403 254.408 63.2323C255.944 64.939 256.712 67.4563 256.712 70.7843C256.712 74.6243 255.688 79.019 253.64 83.9683C256.882 83.7976 261.192 83.1576 266.568 82.0483L270.024 81.4083ZM321.252 91.7763C322.361 91.7763 323.214 92.2883 323.812 93.3123C324.494 94.3363 324.836 95.7443 324.836 97.5363C324.836 100.95 324.025 103.595 322.404 105.472C319.246 109.312 314.766 112.854 308.964 116.096C303.246 119.339 297.102 120.96 290.532 120.96C281.572 120.96 274.617 118.528 269.668 113.664C264.718 108.8 262.244 102.144 262.244 93.6963C262.244 87.8083 263.481 82.347 265.956 77.3123C268.43 72.1923 271.844 68.139 276.196 65.1523C280.633 62.1656 285.625 60.6723 291.172 60.6723C296.121 60.6723 300.089 62.1656 303.076 65.1523C306.062 68.0536 307.556 72.0216 307.556 77.0563C307.556 82.9443 305.422 88.0216 301.156 92.2883C296.974 96.4696 289.849 99.7976 279.78 102.272C281.913 106.198 285.966 108.16 291.94 108.16C295.78 108.16 300.132 106.838 304.996 104.192C309.945 101.462 314.212 97.9203 317.796 93.5683C318.82 92.3736 319.972 91.7763 321.252 91.7763ZM288.996 73.2163C285.838 73.2163 283.15 75.051 280.932 78.7203C278.798 82.3896 277.732 86.827 277.732 92.0323V92.2883C282.766 91.0936 286.734 89.3016 289.636 86.9123C292.537 84.523 293.988 81.7496 293.988 78.5923C293.988 76.971 293.518 75.691 292.58 74.7523C291.726 73.7283 290.532 73.2163 288.996 73.2163ZM362.926 91.7763C364.035 91.7763 364.888 92.2883 365.486 93.3123C366.168 94.3363 366.51 95.7443 366.51 97.5363C366.51 100.95 365.699 103.595 364.078 105.472C360.408 109.995 356.398 113.707 352.046 116.608C347.779 119.51 342.915 120.96 337.454 120.96C329.944 120.96 324.355 117.547 320.686 110.72C317.102 103.894 315.31 95.0616 315.31 84.2243C315.31 73.8136 316.632 61.9523 319.278 48.6403C322.008 35.3283 325.976 23.8936 331.182 14.3363C336.472 4.77897 342.744 0.000305176 349.998 0.000305176C354.094 0.000305176 357.294 1.92031 359.598 5.76031C361.987 9.51498 363.182 14.9336 363.182 22.0163C363.182 32.171 360.366 43.947 354.734 57.3443C349.102 70.7416 341.464 84.011 331.822 97.1523C332.419 100.651 333.4 103.168 334.766 104.704C336.131 106.155 337.923 106.88 340.142 106.88C343.64 106.88 346.712 105.899 349.358 103.936C352.003 101.888 355.374 98.4323 359.47 93.5683C360.494 92.3736 361.646 91.7763 362.926 91.7763ZM347.182 12.6723C345.219 12.6723 343 16.2136 340.526 23.2963C338.051 30.379 335.875 39.1683 333.998 49.6643C332.12 60.1603 331.096 70.2296 330.926 79.8723C336.984 69.8883 341.806 59.9043 345.39 49.9203C348.974 39.851 350.766 30.6776 350.766 22.4003C350.766 15.915 349.571 12.6723 347.182 12.6723ZM457.668 14.0803C460.313 14.5923 462.276 15.4883 463.556 16.7683C464.921 18.0483 465.604 19.5416 465.604 21.2483C465.604 24.0643 464.793 26.1123 463.172 27.3923C461.636 28.6723 459.161 29.1843 455.748 28.9283C448.068 28.331 442.052 27.947 437.7 27.7763C433.433 27.5203 427.801 27.3496 420.804 27.2643C417.646 42.9656 414.745 58.7523 412.1 74.6243C411.161 80.427 410.18 87.1683 409.156 94.8483C408.132 102.443 407.449 108.587 407.108 113.28C406.937 115.755 405.913 117.675 404.036 119.04C402.158 120.32 399.897 120.96 397.252 120.96C394.436 120.96 392.26 120.278 390.724 118.912C389.188 117.547 388.42 115.755 388.42 113.536C388.42 111.488 388.718 108.118 389.316 103.424C389.998 98.6456 390.766 93.6536 391.62 88.4483C392.558 83.243 393.284 78.7203 393.796 74.8803C394.734 68.395 395.801 61.9523 396.996 55.5523C398.19 49.1523 399.385 43.0936 400.58 37.3763C400.836 36.0963 401.134 34.6456 401.476 33.0243C401.817 31.3176 402.201 29.4403 402.628 27.3923C394.265 27.6483 387.694 28.331 382.916 29.4403C378.137 30.5496 374.724 32.1283 372.676 34.1763C370.713 36.139 369.732 38.699 369.732 41.8563C369.732 44.7576 370.585 47.531 372.292 50.1763C372.633 50.7736 372.804 51.4136 372.804 52.0963C372.804 53.7176 371.822 55.2536 369.86 56.7043C367.982 58.0696 366.02 58.7523 363.972 58.7523C362.521 58.7523 361.326 58.3256 360.388 57.4723C358.681 56.0216 357.273 53.9736 356.164 51.3283C355.054 48.5976 354.5 45.5256 354.5 42.1123C354.5 34.859 356.846 29.0563 361.54 24.7043C366.318 20.267 373.529 17.0243 383.172 14.9763C392.9 12.9283 405.358 11.9043 420.548 11.9043C429.934 11.9043 437.401 12.075 442.948 12.4163C448.58 12.7576 453.486 13.3123 457.668 14.0803ZM454.595 120.96C450.755 120.96 447.597 119.211 445.123 115.712C442.733 112.128 441.539 107.691 441.539 102.4C441.539 96.0003 441.965 90.155 442.819 84.8643C443.672 79.4883 445.08 73.8136 447.043 67.8403C447.896 65.2803 449.091 63.4456 450.627 62.3363C452.163 61.227 454.595 60.6723 457.923 60.6723C459.8 60.6723 461.08 60.971 461.763 61.5683C462.531 62.1656 462.915 63.0616 462.915 64.2563C462.915 64.939 462.445 67.243 461.507 71.1683C460.653 74.3256 459.971 77.1843 459.459 79.7443C457.752 88.7043 456.899 94.6776 456.899 97.6643C456.899 99.4563 457.112 100.736 457.539 101.504C457.965 102.187 458.648 102.528 459.587 102.528C460.867 102.528 462.445 101.248 464.323 98.6883C466.285 96.1283 468.333 92.2456 470.467 87.0403C472.685 81.835 474.819 75.435 476.867 67.8403C477.549 65.2803 478.573 63.4456 479.939 62.3363C481.389 61.227 483.523 60.6723 486.339 60.6723C488.301 60.6723 489.667 60.9283 490.435 61.4403C491.203 61.867 491.587 62.7203 491.587 64.0003C491.587 66.1336 490.52 71.979 488.387 81.5363C485.997 92.459 484.803 99.2003 484.803 101.76C484.803 103.382 485.144 104.662 485.827 105.6C486.509 106.454 487.405 106.88 488.515 106.88C490.221 106.88 492.227 105.856 494.531 103.808C496.92 101.675 500.077 98.2616 504.003 93.5683C505.027 92.3736 506.179 91.7763 507.459 91.7763C508.568 91.7763 509.421 92.2883 510.019 93.3123C510.701 94.3363 511.043 95.7443 511.043 97.5363C511.043 100.95 510.232 103.595 508.611 105.472C504.941 109.995 500.973 113.707 496.707 116.608C492.525 119.51 487.747 120.96 482.371 120.96C478.275 120.96 475.245 119.382 473.283 116.224C471.405 113.067 470.467 108.63 470.467 102.912C469.016 108.715 466.84 113.195 463.939 116.352C461.037 119.424 457.923 120.96 454.595 120.96ZM509.752 120.96C506.509 120.96 504.205 119.254 502.84 115.84C501.56 112.427 500.92 106.966 500.92 99.4563C500.92 88.363 502.498 77.8243 505.656 67.8403C506.424 65.3656 507.661 63.5736 509.368 62.4643C511.16 61.2696 513.634 60.6723 516.792 60.6723C518.498 60.6723 519.693 60.8856 520.376 61.3123C521.058 61.739 521.4 62.5496 521.4 63.7443C521.4 65.1096 520.76 68.1816 519.48 72.9603C518.626 76.3736 517.944 79.3603 517.432 81.9203C516.92 84.4803 516.493 87.6376 516.152 91.3923C518.968 84.0536 522.125 78.0803 525.624 73.4723C529.122 68.8643 532.536 65.579 535.864 63.6163C539.277 61.6536 542.392 60.6723 545.208 60.6723C550.754 60.6723 553.528 63.4456 553.528 68.9923C553.528 72.3203 552.589 78.3363 550.712 87.0403C549.09 94.4643 548.28 99.371 548.28 101.76C548.28 105.174 549.517 106.88 551.992 106.88C553.698 106.88 555.704 105.856 558.008 103.808C560.397 101.675 563.554 98.2616 567.48 93.5683C568.504 92.3736 569.656 91.7763 570.936 91.7763C572.045 91.7763 572.898 92.2883 573.496 93.3123C574.178 94.3363 574.52 95.7443 574.52 97.5363C574.52 100.95 573.709 103.595 572.088 105.472C568.418 109.995 564.45 113.707 560.184 116.608C556.002 119.51 551.224 120.96 545.848 120.96C541.496 120.96 538.21 119.723 535.992 117.248C533.773 114.688 532.664 111.019 532.664 106.24C532.664 103.851 533.261 99.5843 534.456 93.4403C535.565 88.0643 536.12 84.3523 536.12 82.3043C536.12 80.939 535.65 80.2563 534.712 80.2563C533.602 80.2563 532.024 81.707 529.976 84.6083C528.013 87.4243 525.965 91.179 523.832 95.8723C521.784 100.566 520.12 105.515 518.84 110.72C517.901 114.731 516.792 117.462 515.512 118.912C514.317 120.278 512.397 120.96 509.752 120.96ZM609.988 95.6163C611.097 95.6163 611.95 96.1283 612.548 97.1523C613.23 98.1763 613.572 99.5843 613.572 101.376C613.572 104.448 612.846 107.094 611.396 109.312C609.006 112.982 605.849 115.84 601.924 117.888C598.084 119.936 593.476 120.96 588.1 120.96C579.908 120.96 573.55 118.528 569.028 113.664C564.505 108.715 562.244 102.059 562.244 93.6963C562.244 87.8083 563.481 82.347 565.956 77.3123C568.43 72.1923 571.844 68.139 576.196 65.1523C580.633 62.1656 585.625 60.6723 591.172 60.6723C596.121 60.6723 600.089 62.1656 603.076 65.1523C606.062 68.0536 607.556 72.0216 607.556 77.0563C607.556 82.9443 605.422 88.0216 601.156 92.2883C596.974 96.4696 589.806 99.7976 579.652 102.272C581.7 106.198 585.156 108.16 590.02 108.16C593.518 108.16 596.377 107.35 598.596 105.728C600.9 104.107 603.545 101.376 606.532 97.5363C607.556 96.2563 608.708 95.6163 609.988 95.6163ZM588.996 73.2163C585.838 73.2163 583.15 75.051 580.932 78.7203C578.798 82.3896 577.732 86.827 577.732 92.0323V92.2883C582.766 91.0936 586.734 89.3016 589.636 86.9123C592.537 84.523 593.988 81.7496 593.988 78.5923C593.988 76.971 593.518 75.691 592.58 74.7523C591.726 73.7283 590.532 73.2163 588.996 73.2163Z" fill="white"/>
</svg>
